<svg xmlns="http://www.w3.org/2000/svg" xmlns:xlink="http://www.w3.org/1999/xlink" width="4500" zoomAndPan="magnify" viewBox="0 0 3374.88 3374.999861" height="4500" preserveAspectRatio="xMidYMid meet" version="1.0"><defs><clipPath id="a9e961a882"><path d="M 407 52.667969 L 2968 52.667969 L 2968 3311 L 407 3311 Z M 407 52.667969 " clip-rule="nonzero"/></clipPath></defs><g clip-path="url(#a9e961a882)"><path fill="#ffbf08" d="M 1687.4375 52.667969 C 981.027344 52.667969 407.5 626.195312 407.5 1332.605469 C 407.5 1655.847656 599.953125 2040.179688 837.90625 2382.039062 C 1179.882812 2873.535156 1607.382812 3278.8125 1607.382812 3278.8125 C 1652.296875 3321.28125 1722.578125 3321.28125 1767.492188 3278.8125 C 1767.492188 3278.8125 2194.992188 2873.535156 2536.964844 2382.039062 C 2774.917969 2040.179688 2967.375 1655.847656 2967.375 1332.605469 C 2967.375 626.195312 2393.847656 52.667969 1687.4375 52.667969 Z M 1687.4375 285.382812 C 2265.386719 285.382812 2734.660156 754.65625 2734.660156 1332.605469 C 2734.660156 1616.285156 2554.769531 1949.070312 2345.90625 2249.15625 C 2106.324219 2593.460938 1822.992188 2893.78125 1687.4375 3030.851562 C 1551.878906 2893.78125 1268.546875 2593.460938 1028.964844 2249.15625 C 820.105469 1949.070312 640.214844 1616.285156 640.214844 1332.605469 C 640.214844 754.65625 1109.484375 285.382812 1687.4375 285.382812 Z M 1687.4375 692.636719 C 1334.171875 692.636719 1047.46875 979.34375 1047.46875 1332.605469 C 1047.46875 1685.867188 1334.171875 1972.574219 1687.4375 1972.574219 C 2040.699219 1972.574219 2327.40625 1685.867188 2327.40625 1332.605469 C 2327.40625 979.34375 2040.699219 692.636719 1687.4375 692.636719 Z M 1687.4375 925.351562 C 1912.242188 925.351562 2094.691406 1107.800781 2094.691406 1332.605469 C 2094.691406 1557.410156 1912.242188 1739.859375 1687.4375 1739.859375 C 1462.632812 1739.859375 1280.183594 1557.410156 1280.183594 1332.605469 C 1280.183594 1107.800781 1462.632812 925.351562 1687.4375 925.351562 Z M 1687.4375 925.351562 " fill-opacity="1" fill-rule="evenodd"/></g></svg>